# Blender v2.79 (sub 0) OBJ File: ''
# www.blender.org
mtllib House.mtl
o House_<STL_BINARY>
v 0.470291 -0.000000 -0.513186
v 0.470291 0.493668 -0.513186
v 0.470291 -0.000000 0.474151
v 0.470291 0.493668 0.474151
v -0.517045 0.000000 -0.513186
v -0.517045 0.000000 0.474151
v -0.517045 0.493668 -0.513186
v -0.517045 0.493668 0.474151
v -0.023377 0.987337 -0.513186
v -0.023377 0.987337 0.474151
vt 0.000000 0.000000
vt 1.000000 0.000000
vt 1.000000 1.000000
vt 0.000000 0.000000
vt 1.000000 1.000000
vt 0.000000 0.000000
vt 1.000000 0.000000
vt 1.000000 1.000000
vt 0.000000 0.000000
vt 0.000000 0.000000
vt 1.000000 0.000000
vt 1.000000 1.000000
vt 0.000000 0.000000
vt 0.000000 0.000000
vt 1.000000 0.000000
vt 1.000000 1.000000
vt 0.000000 0.000000
vt 0.000000 0.000000
vt 1.000000 0.000000
vt 0.000000 0.000000
vt 1.000000 1.000000
vt 1.000000 1.000000
vt 1.000000 1.000000
vt 1.000000 0.000000
vt 0.996875 0.000000
vn 1.0000 -0.0000 0.0000
vn -0.0000 -1.0000 0.0000
vn -1.0000 0.0000 -0.0000
vn -0.7071 0.7071 -0.0000
vn 0.7071 0.7071 0.0000
vn 0.0000 0.0000 -1.0000
vn -0.0000 0.0000 1.0000
usemtl Material.001
s 1
f 1/1/1 2/2/1 3/3/1
f 3/4/1 2/2/1 4/5/1
f 5/6/2 1/7/2 6/8/2
f 6/9/2 1/7/2 3/3/2
f 7/10/3 5/11/3 8/12/3
f 8/13/3 5/11/3 6/8/3
f 9/14/4 7/15/4 10/16/4
f 10/17/4 7/15/4 8/12/4
f 2/18/5 9/19/5 4/5/5
f 4/20/5 9/19/5 10/16/5
f 9/14/6 2/2/6 7/21/6
f 7/10/6 2/2/6 1/22/6
f 7/10/6 1/7/6 5/23/6
f 10/17/7 8/24/7 4/5/7
f 4/20/7 8/24/7 6/8/7
f 4/20/7 6/25/7 3/3/7
