# Blender v2.79 (sub 0) OBJ File: ''
# www.blender.org
mtllib untitled.mtl
o Plane_Plane.001
v -0.524778 1.338040 0.721289
v 0.524778 0.018338 0.721289
v -0.524778 1.338040 -0.721289
v 0.524778 0.018338 -0.721289
v -0.518225 1.343251 0.721289
v 0.531331 0.023550 0.721289
v -0.518225 1.343251 -0.721289
v 0.531331 0.023550 -0.721289
vt 0.000000 0.000000
vt 1.000000 0.000000
vt 1.000000 1.000000
vt 0.000000 1.000000
vt 1.000000 0.000000
vt 0.000000 1.000000
vt 0.000000 0.000000
vt 0.000000 0.000000
vt 1.000000 0.000000
vt 1.000000 1.000000
vt 0.000000 1.000000
vt 0.000000 0.000000
vt 1.000000 0.000000
vt 1.000000 1.000000
vt 0.000000 0.000000
vt 1.000000 1.000000
vt 0.000000 1.000000
vt 1.000000 0.000000
vt 1.000000 1.000000
vt 0.000000 1.000000
vn -0.7827 -0.6224 0.0000
vn 0.7827 0.6224 0.0000
vn 0.6225 -0.7827 0.0000
vn -0.6225 0.7827 0.0000
vn 0.0000 0.0000 -1.0000
vn 0.0000 0.0000 1.0000
usemtl None
s off
f 1/1/1 3/2/1 4/3/1 2/4/1
f 6/5/2 7/6/2 5/7/2
f 2/8/3 4/9/3 8/10/3 6/11/3
f 3/12/4 1/13/4 5/14/4 7/6/4
f 4/15/5 3/2/5 7/16/5 8/17/5
f 1/1/6 2/18/6 6/19/6 5/20/6
f 6/5/2 8/10/2 7/6/2
